<?xml version="1.0" encoding="utf-8"?>
<!-- Generator: Adobe Illustrator 27.5.0, SVG Export Plug-In . SVG Version: 6.00 Build 0)  -->
<svg version="1.0" id="Layer_1" xmlns="http://www.w3.org/2000/svg" xmlns:xlink="http://www.w3.org/1999/xlink" x="0px" y="0px"
	 viewBox="0 0 526 98" enable-background="new 0 0 526 98" xml:space="preserve">
<linearGradient id="SVGID_1_" gradientUnits="userSpaceOnUse" x1="-5.0581" y1="70.0239" x2="28.4243" y2="40.3066" gradientTransform="matrix(1 0 0 -1 0 97.8898)">
	<stop  offset="0" style="stop-color:#FFC551"/>
	<stop  offset="0.6528" style="stop-color:#BC792F"/>
	<stop  offset="1" style="stop-color:#DC6F1D"/>
</linearGradient>
<path fill="url(#SVGID_1_)" d="M32.9,57.1c-2.5,5-6,9.4-12.3,9.4c-9.3,0-12.3-10.3-15.4-20c-3-9.7-3-9.1-4.1-11.5
	c-0.7-1.2-1-2.5-1-4c0-4.5,3.6-8.1,8.1-8.1c2.4,0,4.3,0.8,5.8,2.4c3.5,3.5,4.6,8.8,7.2,16.8l2,5.7C23.4,48.5,24.3,54.7,32.9,57.1z"
	/>
<linearGradient id="SVGID_00000121240781873724973730000009999811736633905319_" gradientUnits="userSpaceOnUse" x1="37.0059" y1="70.3858" x2="50.5598" y2="34.1484" gradientTransform="matrix(1 0 0 -1 0 97.8898)">
	<stop  offset="0" style="stop-color:#E07520"/>
	<stop  offset="1" style="stop-color:#C75A1D"/>
</linearGradient>
<path fill="url(#SVGID_00000121240781873724973730000009999811736633905319_)" d="M60.3,56.8c-2.3,4.6-5.2,9.7-11,9.7
	c-9.4,0-12.2-9-14.4-14.5c-2.7-7.9-4.4-13.9-4.9-15c-0.9-2.2-0.1-2.6-4.6-7.6C27.4,25.1,31,23,36,23c7.9,0,11.2,11.6,12.8,16.7
	C50.8,45.5,51.2,54.5,60.3,56.8L60.3,56.8z"/>
<radialGradient id="SVGID_00000068659581115996327940000002345971712145490328_" cx="-15.7961" cy="473.5526" r="1" gradientTransform="matrix(-1.4323 20.2012 16.401 1.1629 -7754.1875 -208.6837)" gradientUnits="userSpaceOnUse">
	<stop  offset="0" style="stop-color:#FEB83F"/>
	<stop  offset="1" style="stop-color:#C75A1D;stop-opacity:0"/>
</radialGradient>
<path fill="url(#SVGID_00000068659581115996327940000002345971712145490328_)" d="M60.3,56.8c-2.3,4.6-5.2,9.7-11,9.7
	c-9.4,0-12.2-9-14.4-14.5c-2.7-7.9-4.4-13.9-4.9-15c-0.9-2.2-0.1-2.6-4.6-7.6C27.4,25.1,31,23,36,23c7.9,0,11.2,11.6,12.8,16.7
	C50.8,45.5,51.2,54.5,60.3,56.8L60.3,56.8z"/>
<linearGradient id="SVGID_00000026164463119738949970000003084141135411187114_" gradientUnits="userSpaceOnUse" x1="64.1809" y1="73.9626" x2="73.4352" y2="34.7285" gradientTransform="matrix(1 0 0 -1 0 97.8898)">
	<stop  offset="0" style="stop-color:#DC3905"/>
	<stop  offset="1" style="stop-color:#CA5014"/>
</linearGradient>
<path fill="url(#SVGID_00000026164463119738949970000003084141135411187114_)" d="M83.2,58.4c0,4.5-3,8.1-8,8.1
	c-6.9,0-10.1-9.6-12.2-15.7c-5.4-16.7-3.8-15.7-9.1-22.5C54,28.2,56.6,23,64,23c2.5,0,5.4,1.9,7,3.5c3.6,3.6,5.1,10.1,8.3,20.1
	C81.7,55.1,83.2,53.6,83.2,58.4z"/>
<linearGradient id="SVGID_00000144335483001052317840000010146380784034853283_" gradientUnits="userSpaceOnUse" x1="79.5471" y1="64.5369" x2="65.3602" y2="49.5599" gradientTransform="matrix(1 0 0 -1 0 97.8898)">
	<stop  offset="0" style="stop-color:#FC8A21"/>
	<stop  offset="1" style="stop-color:#CA5014;stop-opacity:0"/>
</linearGradient>
<path fill="url(#SVGID_00000144335483001052317840000010146380784034853283_)" d="M83.2,58.4c0,4.5-3,8.1-8,8.1
	c-6.9,0-10.1-9.6-12.2-15.7c-5.4-16.7-3.8-15.7-9.1-22.5C54,28.2,56.6,23,64,23c2.5,0,5.4,1.9,7,3.5c3.6,3.6,5.1,10.1,8.3,20.1
	C81.7,55.1,83.2,53.6,83.2,58.4z"/>
<radialGradient id="SVGID_00000009559794725656486130000015595311257832466053_" cx="-3.0072" cy="470.4574" r="1" gradientTransform="matrix(0.7979 12.0227 16.3367 -1.0842 -7622.6738 568.663)" gradientUnits="userSpaceOnUse">
	<stop  offset="0" style="stop-color:#FC8A21"/>
	<stop  offset="1" style="stop-color:#CA5014;stop-opacity:0"/>
</radialGradient>
<path fill="url(#SVGID_00000009559794725656486130000015595311257832466053_)" d="M83.2,58.4c0,4.5-3,8.1-8,8.1
	c-6.9,0-10.1-9.6-12.2-15.7c-5.4-16.7-3.8-15.7-9.1-22.5C54,28.2,56.6,23,64,23c2.5,0,5.4,1.9,7,3.5c3.6,3.6,5.1,10.1,8.3,20.1
	C81.7,55.1,83.2,53.6,83.2,58.4z"/>
<radialGradient id="SVGID_00000153680756883823351610000007944195046568115348_" cx="-44.8668" cy="453.4578" r="1" gradientTransform="matrix(12.0023 -6.5635 -10.0064 -18.2982 5136.8809 8047.5161)" gradientUnits="userSpaceOnUse">
	<stop  offset="0" style="stop-color:#E95A11"/>
	<stop  offset="1" style="stop-color:#CA5014;stop-opacity:0"/>
</radialGradient>
<path fill="url(#SVGID_00000153680756883823351610000007944195046568115348_)" d="M83.2,58.4c0,4.5-3,8.1-8,8.1
	c-6.9,0-10.1-9.6-12.2-15.7c-5.4-16.7-3.8-15.7-9.1-22.5C54,28.2,56.6,23,64,23c2.5,0,5.4,1.9,7,3.5c3.6,3.6,5.1,10.1,8.3,20.1
	C81.7,55.1,83.2,53.6,83.2,58.4z"/>
<linearGradient id="SVGID_00000174590155000650303310000009652601435724010659_" gradientUnits="userSpaceOnUse" x1="21.4966" y1="53.2177" x2="37.2877" y2="56.076" gradientTransform="matrix(1 0 0 -1 0 97.8898)">
	<stop  offset="0" style="stop-color:#EF8E2C"/>
	<stop  offset="1" style="stop-color:#C84E0D"/>
</linearGradient>
<path fill="url(#SVGID_00000174590155000650303310000009652601435724010659_)" d="M34.9,52.1c-0.8,2-1,3.1-2,5.1
	c-8.6-2.5-9.5-8.7-9.8-9.3l-2-5.7c1.6-5.1,2.4-8.5,4.3-12.7c4.6,5.1,3.7,5.4,4.6,7.6C30.5,38.1,32.1,44.1,34.9,52.1z"/>
<radialGradient id="SVGID_00000149351574863381512580000002541587697916708225_" cx="-20.0807" cy="504.5901" r="1" gradientTransform="matrix(-12.1489 14.5 5.8531 4.904 -3165.6025 -2150.1157)" gradientUnits="userSpaceOnUse">
	<stop  offset="0" style="stop-color:#C64D0C"/>
	<stop  offset="1" style="stop-color:#C9510E;stop-opacity:0"/>
</radialGradient>
<path fill="url(#SVGID_00000149351574863381512580000002541587697916708225_)" d="M34.9,52.1c-0.8,2-1,3.1-2,5.1
	c-8.6-2.5-9.5-8.7-9.8-9.3l-2-5.7c1.6-5.1,2.4-8.5,4.3-12.7c4.6,5.1,3.7,5.4,4.6,7.6C30.5,38.1,32.1,44.1,34.9,52.1z"/>
<radialGradient id="SVGID_00000101814353698696220520000007328525461282722704_" cx="-25.6683" cy="465.8008" r="1" gradientTransform="matrix(21.0978 10.5194 34.6735 -69.5413 -15578.7412 32702.5762)" gradientUnits="userSpaceOnUse">
	<stop  offset="0" style="stop-color:#C64D0D"/>
	<stop  offset="1" style="stop-color:#DF7B24;stop-opacity:0"/>
</radialGradient>
<path fill="url(#SVGID_00000101814353698696220520000007328525461282722704_)" d="M34.9,52.1c-0.8,2-1,3.1-2,5.1
	c-8.6-2.5-9.5-8.7-9.8-9.3l-2-5.7c1.6-5.1,2.4-8.5,4.3-12.7c4.6,5.1,3.7,5.4,4.6,7.6C30.5,38.1,32.1,44.1,34.9,52.1z"/>
<radialGradient id="SVGID_00000103227760472322284790000006070312214043421605_" cx="-50.1379" cy="456.1458" r="1" gradientTransform="matrix(7.0496 -3.2617 -10.7512 -23.2364 5280.2588 10485.1943)" gradientUnits="userSpaceOnUse">
	<stop  offset="0" style="stop-color:#F1902E"/>
	<stop  offset="1" style="stop-color:#DF7B24;stop-opacity:0"/>
</radialGradient>
<path fill="url(#SVGID_00000103227760472322284790000006070312214043421605_)" d="M34.9,52.1c-0.8,2-1,3.1-2,5.1
	c-8.6-2.5-9.5-8.7-9.8-9.3l-2-5.7c1.6-5.1,2.4-8.5,4.3-12.7c4.6,5.1,3.7,5.4,4.6,7.6C30.5,38.1,32.1,44.1,34.9,52.1z"/>
<linearGradient id="SVGID_00000028312655797605878460000006411065771220743307_" gradientUnits="userSpaceOnUse" x1="55.9208" y1="69.5393" x2="55.9208" y2="40.7965" gradientTransform="matrix(1 0 0 -1 0 97.8898)">
	<stop  offset="0" style="stop-color:#D74F10"/>
	<stop  offset="1" style="stop-color:#C95C1D"/>
</linearGradient>
<path fill="url(#SVGID_00000028312655797605878460000006411065771220743307_)" d="M63,50.9c-0.5,1.3-1.5,3.6-2.7,5.9
	c-9.1-2.3-9.5-11.3-11.5-17.1c2-6,3.9-9.4,5.1-11.3C59.2,35.2,57.6,34.2,63,50.9z"/>
<radialGradient id="SVGID_00000170969255500584350350000006825136333443661491_" cx="-22.2822" cy="464.8538" r="1" gradientTransform="matrix(12.4832 27.3779 22.2942 -10.1652 -10024.7871 5355.8271)" gradientUnits="userSpaceOnUse">
	<stop  offset="0" style="stop-color:#FC8A21"/>
	<stop  offset="1" style="stop-color:#F06315;stop-opacity:0"/>
</radialGradient>
<path fill="url(#SVGID_00000170969255500584350350000006825136333443661491_)" d="M79.3,46.6C76,36.5,74.6,30,71,26.4
	c-1.6-1.6-4.4-3.5-7-3.5c-7.4,0-10,5.3-10.1,5.4c-1.2,1.9-3.1,5.4-5.1,11.3c2,5.8,2.4,14.8,11.5,17.1c1.2-2.4,2.2-4.6,2.7-5.9
	c2.1,6,5.4,15.7,12.2,15.7c5,0,8-3.6,8-8.1C83.2,53.5,81.7,55.1,79.3,46.6L79.3,46.6L79.3,46.6z"/>
<radialGradient id="SVGID_00000129892522627682484080000008147743222339959212_" cx="-15.0711" cy="463.2273" r="1" gradientTransform="matrix(4.544 18.9952 7.8067 -1.8675 -3490.2871 1187.9875)" gradientUnits="userSpaceOnUse">
	<stop  offset="0" style="stop-color:#E03B03;stop-opacity:0.61"/>
	<stop  offset="0.9676" style="stop-color:#DE3802;stop-opacity:0"/>
</radialGradient>
<path fill="url(#SVGID_00000129892522627682484080000008147743222339959212_)" d="M79.3,46.6C76,36.5,74.6,30,71,26.4
	c-1.6-1.6-4.4-3.5-7-3.5c-7.4,0-10,5.3-10.1,5.4c-1.2,1.9-3.1,5.4-5.1,11.3c2,5.8,2.4,14.8,11.5,17.1c1.2-2.4,2.2-4.6,2.7-5.9
	c2.1,6,5.4,15.7,12.2,15.7c5,0,8-3.6,8-8.1C83.2,53.5,81.7,55.1,79.3,46.6L79.3,46.6L79.3,46.6z"/>
<radialGradient id="SVGID_00000037656253570021212860000006778109942307804820_" cx="20.4432" cy="476.1435" r="1" gradientTransform="matrix(0.3013 6.847 2.814 -0.1238 -1290.2482 -43.5901)" gradientUnits="userSpaceOnUse">
	<stop  offset="0" style="stop-color:#E74404"/>
	<stop  offset="0.9676" style="stop-color:#DE3802;stop-opacity:0"/>
</radialGradient>
<path fill="url(#SVGID_00000037656253570021212860000006778109942307804820_)" d="M79.3,46.6C76,36.5,74.6,30,71,26.4
	c-1.6-1.6-4.4-3.5-7-3.5c-7.4,0-10,5.3-10.1,5.4c-1.2,1.9-3.1,5.4-5.1,11.3c2,5.8,2.4,14.8,11.5,17.1c1.2-2.4,2.2-4.6,2.7-5.9
	c2.1,6,5.4,15.7,12.2,15.7c5,0,8-3.6,8-8.1C83.2,53.5,81.7,55.1,79.3,46.6L79.3,46.6L79.3,46.6z"/>
<linearGradient id="SVGID_00000147906094314070676650000007915585314448012463_" gradientUnits="userSpaceOnUse" x1="49.3839" y1="57.1717" x2="51.0637" y2="56.8357" gradientTransform="matrix(1 0 0 -1 0 97.8898)">
	<stop  offset="0" style="stop-color:#FE881E"/>
	<stop  offset="0.9676" style="stop-color:#FC871E;stop-opacity:0"/>
</linearGradient>
<path fill="url(#SVGID_00000147906094314070676650000007915585314448012463_)" d="M79.3,46.6C76,36.5,74.6,30,71,26.4
	c-1.6-1.6-4.4-3.5-7-3.5c-7.4,0-10,5.3-10.1,5.4c-1.2,1.9-3.1,5.4-5.1,11.3c2,5.8,2.4,14.8,11.5,17.1c1.2-2.4,2.2-4.6,2.7-5.9
	c2.1,6,5.4,15.7,12.2,15.7c5,0,8-3.6,8-8.1C83.2,53.5,81.7,55.1,79.3,46.6L79.3,46.6L79.3,46.6z"/>
<radialGradient id="SVGID_00000160892027049399822350000018409053676843174582_" cx="-26.6806" cy="484.3601" r="1" gradientTransform="matrix(-10.1404 3.1446 7.4789 24.1172 -3837.6719 -11541.3682)" gradientUnits="userSpaceOnUse">
	<stop  offset="0" style="stop-color:#C2440E"/>
	<stop  offset="1" style="stop-color:#CD5D1D;stop-opacity:0"/>
</radialGradient>
<path fill="url(#SVGID_00000160892027049399822350000018409053676843174582_)" d="M53.9,28.3c-1.7,3.9-3.1,5.4-5.1,11.3
	C47.3,34.8,44,23,36,23c-5,0-8.6,2.2-10.6,6.5c4.6,5.1,3.7,5.4,4.6,7.6c0.5,1.1,2.1,7.1,4.9,15c2.2,5.5,5,14.5,14.4,14.5
	c5.8,0,8.7-5.1,11-9.7c1.2-2.4,2.2-4.6,2.7-5.9C57.6,34.2,59.7,35.1,53.9,28.3z"/>
<radialGradient id="SVGID_00000112602714971346712930000000969055225746407869_" cx="-26.4802" cy="490.9864" r="1" gradientTransform="matrix(-12.4854 4.748 6.062 15.9408 -3244.6504 -7659.9565)" gradientUnits="userSpaceOnUse">
	<stop  offset="0" style="stop-color:#DA3904"/>
	<stop  offset="1" style="stop-color:#E94E05;stop-opacity:0"/>
</radialGradient>
<path fill="url(#SVGID_00000112602714971346712930000000969055225746407869_)" d="M63,50.9c-0.5,1.3-1.5,3.6-2.7,5.9
	c-9.1-2.3-9.5-11.3-11.5-17.1c2-6,3.9-9.4,5.1-11.3C59.2,35.2,57.6,34.2,63,50.9z"/>
<radialGradient id="SVGID_00000036227502113750310780000013033409790048587945_" cx="-15.8129" cy="482.3779" r="1" gradientTransform="matrix(-8.5994 6.4105 15.2464 20.4524 -7434.4346 -9714.6748)" gradientUnits="userSpaceOnUse">
	<stop  offset="0" style="stop-color:#FD6612"/>
	<stop  offset="1" style="stop-color:#CD5D1D;stop-opacity:0"/>
</radialGradient>
<path fill="url(#SVGID_00000036227502113750310780000013033409790048587945_)" d="M53.9,28.3c-1.7,3.9-3.1,5.4-5.1,11.3
	C47.3,34.8,44,23,36,23c-5,0-8.6,2.2-10.6,6.5c4.6,5.1,3.7,5.4,4.6,7.6c0.5,1.1,2.1,7.1,4.9,15c2.2,5.5,5,14.5,14.4,14.5
	c5.8,0,8.7-5.1,11-9.7c1.2-2.4,2.2-4.6,2.7-5.9C57.6,34.2,59.7,35.1,53.9,28.3z"/>
<radialGradient id="SVGID_00000101810857811623768200000002102416331209615508_" cx="-54.7862" cy="454.3491" r="1" gradientTransform="matrix(7.2533 -4.999 -11.8893 -17.2508 5855.8799 7620.062)" gradientUnits="userSpaceOnUse">
	<stop  offset="0" style="stop-color:#C8430C"/>
	<stop  offset="1" style="stop-color:#CD5D1D;stop-opacity:0"/>
</radialGradient>
<path fill="url(#SVGID_00000101810857811623768200000002102416331209615508_)" d="M53.9,28.3c-1.7,3.9-3.1,5.4-5.1,11.3
	C47.3,34.8,44,23,36,23c-5,0-8.6,2.2-10.6,6.5c4.6,5.1,3.7,5.4,4.6,7.6c0.5,1.1,2.1,7.1,4.9,15c2.2,5.5,5,14.5,14.4,14.5
	c5.8,0,8.7-5.1,11-9.7c1.2-2.4,2.2-4.6,2.7-5.9C57.6,34.2,59.7,35.1,53.9,28.3z"/>
<radialGradient id="SVGID_00000116206557744504434740000006742272894452278457_" cx="-20.3006" cy="472.9584" r="1" gradientTransform="matrix(-8.6877 22.921 49.8654 18.9003 -23720.748 -8445.6191)" gradientUnits="userSpaceOnUse">
	<stop  offset="0" style="stop-color:#FFAE3B"/>
	<stop  offset="1" style="stop-color:#C75A1D;stop-opacity:0"/>
</radialGradient>
<path fill="url(#SVGID_00000116206557744504434740000006742272894452278457_)" d="M60.3,56.8c-2.3,4.6-5.2,9.7-11,9.7
	c-9.4,0-12.2-9-14.4-14.5c-2.7-7.9-4.4-13.9-4.9-15c-0.9-2.2-0.1-2.6-4.6-7.6C27.4,25.1,31,23,36,23c7.9,0,11.2,11.6,12.8,16.7
	C50.8,45.5,51.2,54.5,60.3,56.8L60.3,56.8z"/>
<radialGradient id="SVGID_00000080206548593612665630000007358123068449784511_" cx="-57.3421" cy="449.0127" r="1" gradientTransform="matrix(5.226 -13.3138 -7.4716 -2.9328 3674.4248 586.0814)" gradientUnits="userSpaceOnUse">
	<stop  offset="0" style="stop-color:#FFA134"/>
	<stop  offset="1" style="stop-color:#FEA235;stop-opacity:0"/>
</radialGradient>
<path fill="url(#SVGID_00000080206548593612665630000007358123068449784511_)" d="M60.3,56.8c-9.1-2.3-9.5-11.3-11.5-17.1
	C47.3,34.8,44,23,36,23c-5,0-8.6,2.2-10.6,6.5c-1.9,4.2-2.7,7.6-4.3,12.7l2,5.7c0.3,0.7,1.2,6.8,9.8,9.3c1-2,1.2-3.1,2-5.1
	c2.2,5.5,5,14.5,14.4,14.5C55.1,66.5,58,61.4,60.3,56.8L60.3,56.8L60.3,56.8z"/>
<radialGradient id="SVGID_00000130607738646999291660000011173671522311844251_" cx="-46.235" cy="451.6557" r="1" gradientTransform="matrix(11.597 -23.2268 -9.6462 -4.8163 4918.4155 1136.3225)" gradientUnits="userSpaceOnUse">
	<stop  offset="0" style="stop-color:#C8520E"/>
	<stop  offset="1" style="stop-color:#CA530F;stop-opacity:0"/>
</radialGradient>
<path fill="url(#SVGID_00000130607738646999291660000011173671522311844251_)" d="M60.3,56.8c-9.1-2.3-9.5-11.3-11.5-17.1
	C47.3,34.8,44,23,36,23c-5,0-8.6,2.2-10.6,6.5c-1.9,4.2-2.7,7.6-4.3,12.7l2,5.7c0.3,0.7,1.2,6.8,9.8,9.3c1-2,1.2-3.1,2-5.1
	c2.2,5.5,5,14.5,14.4,14.5C55.1,66.5,58,61.4,60.3,56.8L60.3,56.8L60.3,56.8z"/>
<linearGradient id="SVGID_00000170993066979096359480000009174621942575075976_" gradientUnits="userSpaceOnUse" x1="20.5315" y1="61.1227" x2="25.639" y2="59.2409" gradientTransform="matrix(1 0 0 -1 0 97.8898)">
	<stop  offset="0" style="stop-color:#FEA837"/>
	<stop  offset="1" style="stop-color:#CA530F;stop-opacity:0"/>
</linearGradient>
<path fill="url(#SVGID_00000170993066979096359480000009174621942575075976_)" d="M60.3,56.8c-9.1-2.3-9.5-11.3-11.5-17.1
	C47.3,34.8,44,23,36,23c-5,0-8.6,2.2-10.6,6.5c-1.9,4.2-2.7,7.6-4.3,12.7l2,5.7c0.3,0.7,1.2,6.8,9.8,9.3c1-2,1.2-3.1,2-5.1
	c2.2,5.5,5,14.5,14.4,14.5C55.1,66.5,58,61.4,60.3,56.8L60.3,56.8L60.3,56.8z"/>
<radialGradient id="SVGID_00000000945283317834744000000008539693336186918057_" cx="-67.8011" cy="472.8196" r="1" gradientTransform="matrix(-1.8452 -10.863 -9.6833 1.6448 4504.355 -1464.3877)" gradientUnits="userSpaceOnUse">
	<stop  offset="0" style="stop-color:#FD6813"/>
	<stop  offset="1" style="stop-color:#E54100;stop-opacity:0"/>
</radialGradient>
<path fill="url(#SVGID_00000000945283317834744000000008539693336186918057_)" d="M63,50.9c-0.5,1.3-1.5,3.6-2.7,5.9
	c-9.1-2.3-9.5-11.3-11.5-17.1c2-6,3.9-9.4,5.1-11.3C59.1,35.2,57.6,34.2,63,50.9z"/>
<radialGradient id="SVGID_00000156586498799279884200000016273313846328311967_" cx="-22.7081" cy="518.3694" r="1" gradientTransform="matrix(-14.617 12.7764 4.1059 4.6974 -2399.4216 -2110.1704)" gradientUnits="userSpaceOnUse">
	<stop  offset="0" style="stop-color:#DB3704"/>
	<stop  offset="1" style="stop-color:#E54100;stop-opacity:0"/>
</radialGradient>
<path fill="url(#SVGID_00000156586498799279884200000016273313846328311967_)" d="M63,50.9c-0.5,1.3-1.5,3.6-2.7,5.9
	c-9.1-2.3-9.5-11.3-11.5-17.1c2-6,3.9-9.4,5.1-11.3C59.1,35.2,57.6,34.2,63,50.9z"/>
<radialGradient id="SVGID_00000131352260242438769810000004451809636333067940_" cx="-15.7626" cy="493.9671" r="1" gradientTransform="matrix(-9.2669 9.2692 8.4314 8.4293 -4248.4146 -3978.741)" gradientUnits="userSpaceOnUse">
	<stop  offset="0" style="stop-color:#DB3704"/>
	<stop  offset="1" style="stop-color:#E54100;stop-opacity:0"/>
</radialGradient>
<path fill="url(#SVGID_00000131352260242438769810000004451809636333067940_)" d="M63,50.9c-0.5,1.3-1.5,3.6-2.7,5.9
	c-9.1-2.3-9.5-11.3-11.5-17.1c2-6,3.9-9.4,5.1-11.3C59.1,35.2,57.6,34.2,63,50.9z"/>
<radialGradient id="SVGID_00000117653360513452831840000012439141896127658939_" cx="-54.6236" cy="427.454" r="1" gradientTransform="matrix(7.4241 -5.2796 -4.4093 -6.2003 2339.0354 2412.5916)" gradientUnits="userSpaceOnUse">
	<stop  offset="0" style="stop-color:#FD6813"/>
	<stop  offset="1" style="stop-color:#FC6613;stop-opacity:0"/>
</radialGradient>
<path fill="url(#SVGID_00000117653360513452831840000012439141896127658939_)" d="M63,50.9c-0.5,1.3-1.5,3.6-2.7,5.9
	c-9.1-2.3-9.5-11.3-11.5-17.1c2-6,3.9-9.4,5.1-11.3C59.1,35.2,57.6,34.2,63,50.9z"/>
<radialGradient id="SVGID_00000004513167415375296700000001990127344751163323_" cx="-40.4272" cy="504.9762" r="1" gradientTransform="matrix(-12.3551 -1.5496 -1.2942 10.3186 217.6317 -5224.2065)" gradientUnits="userSpaceOnUse">
	<stop  offset="0" style="stop-color:#DD3C04"/>
	<stop  offset="1" style="stop-color:#DE4706;stop-opacity:0"/>
</radialGradient>
<path fill="url(#SVGID_00000004513167415375296700000001990127344751163323_)" d="M63,50.9c-0.5,1.3-1.5,3.6-2.7,5.9
	c-9.1-2.3-9.5-11.3-11.5-17.1c2-6,3.9-9.4,5.1-11.3C59.1,35.2,57.6,34.2,63,50.9z"/>
<radialGradient id="SVGID_00000113324196477804953520000009111239794520270475_" cx="-17.9131" cy="488.8537" r="1" gradientTransform="matrix(-8.9333 17.4783 9.3709 4.7896 -4678.2324 -1992.6785)" gradientUnits="userSpaceOnUse">
	<stop  offset="0" style="stop-color:#BC3100"/>
	<stop  offset="1" style="stop-color:#DE4706;stop-opacity:0"/>
</radialGradient>
<path fill="url(#SVGID_00000113324196477804953520000009111239794520270475_)" d="M63,50.9c-0.5,1.3-1.5,3.6-2.7,5.9
	c-9.1-2.3-9.5-11.3-11.5-17.1c2-6,3.9-9.4,5.1-11.3C59.1,35.2,57.6,34.2,63,50.9z"/>
<radialGradient id="SVGID_00000112632266803619597690000008498692073866162579_" cx="-3.7083" cy="475.4709" r="1" gradientTransform="matrix(-1.7843 11.8426 15.7766 2.377 -7471.938 -1063.4626)" gradientUnits="userSpaceOnUse">
	<stop  offset="0" style="stop-color:#FEB83F"/>
	<stop  offset="1" style="stop-color:#C75A1D;stop-opacity:0"/>
</radialGradient>
<path fill="url(#SVGID_00000112632266803619597690000008498692073866162579_)" d="M60.3,56.8c-2.3,4.6-5.2,9.7-11,9.7
	c-9.4,0-12.2-9-14.4-14.5c-2.7-7.9-4.4-13.9-4.9-15c-0.9-2.2-0.1-2.6-4.6-7.6C27.4,25.1,31,23,36,23c7.9,0,11.2,11.6,12.8,16.7
	C50.8,45.5,51.2,54.5,60.3,56.8L60.3,56.8z"/>
<radialGradient id="SVGID_00000090259786660813190400000003515639929095906216_" cx="-11.8876" cy="484.1807" r="1" gradientTransform="matrix(-7.6127 9.4582 14.1584 11.3959 -6906.0981 -5378.1543)" gradientUnits="userSpaceOnUse">
	<stop  offset="0" style="stop-color:#FEB83F"/>
	<stop  offset="1" style="stop-color:#FEB43E;stop-opacity:0"/>
</radialGradient>
<path fill="url(#SVGID_00000090259786660813190400000003515639929095906216_)" d="M60.3,56.8c-2.3,4.6-5.2,9.7-11,9.7
	c-9.4,0-12.2-9-14.4-14.5c-2.7-7.9-4.4-13.9-4.9-15c-0.9-2.2-0.1-2.6-4.6-7.6C27.4,25.1,31,23,36,23c7.9,0,11.2,11.6,12.8,16.7
	C50.8,45.5,51.2,54.5,60.3,56.8L60.3,56.8z"/>
<radialGradient id="SVGID_00000134944667599871580350000012029376826662327949_" cx="-17.6087" cy="490.6437" r="1" gradientTransform="matrix(-10.3572 11.2508 9.8183 9.0385 -4951.7769 -4201.3467)" gradientUnits="userSpaceOnUse">
	<stop  offset="0" style="stop-color:#FB8E2D"/>
	<stop  offset="1" style="stop-color:#F18028;stop-opacity:0"/>
</radialGradient>
<path fill="url(#SVGID_00000134944667599871580350000012029376826662327949_)" d="M60.3,56.8c-2.3,4.6-5.2,9.7-11,9.7
	c-9.4,0-12.2-9-14.4-14.5c-2.7-7.9-4.4-13.9-4.9-15c-0.9-2.2-0.1-2.6-4.6-7.6C27.4,25.1,31,23,36,23c7.9,0,11.2,11.6,12.8,16.7
	C50.8,45.5,51.2,54.5,60.3,56.8L60.3,56.8z"/>
<radialGradient id="SVGID_00000043432008250505648390000004128266987194993331_" cx="-49.3721" cy="459.6578" r="1" gradientTransform="matrix(8.8567 -19.055 -16.6289 -7.7291 8121.9263 2665.5764)" gradientUnits="userSpaceOnUse">
	<stop  offset="0" style="stop-color:#CF601E"/>
	<stop  offset="1" style="stop-color:#D4641F;stop-opacity:0"/>
</radialGradient>
<path fill="url(#SVGID_00000043432008250505648390000004128266987194993331_)" d="M60.3,56.8c-2.3,4.6-5.2,9.7-11,9.7
	c-9.4,0-12.2-9-14.4-14.5c-2.7-7.9-4.4-13.9-4.9-15c-0.9-2.2-0.1-2.6-4.6-7.6C27.4,25.1,31,23,36,23c7.9,0,11.2,11.6,12.8,16.7
	C50.8,45.5,51.2,54.5,60.3,56.8L60.3,56.8z"/>
<radialGradient id="SVGID_00000111903564458469123490000009407188843210840999_" cx="-28.6263" cy="434.4546" r="1" gradientTransform="matrix(8.6633 0.2936 0.3543 -10.4535 113.6313 4597.6445)" gradientUnits="userSpaceOnUse">
	<stop  offset="0" style="stop-color:#F1902E"/>
	<stop  offset="1" style="stop-color:#DF7B24;stop-opacity:0"/>
</radialGradient>
<path fill="url(#SVGID_00000111903564458469123490000009407188843210840999_)" d="M34.9,52.1c-0.8,2-1,3.1-2,5.1
	c-8.6-2.5-9.5-8.7-9.8-9.3l-2-5.7c1.6-5.1,2.4-8.5,4.3-12.7c4.6,5.1,3.7,5.4,4.6,7.6C30.5,38.1,32.1,44.1,34.9,52.1z"/>
<radialGradient id="SVGID_00000044147333538962302320000002727300709032017563_" cx="-21.0431" cy="492.2359" r="1" gradientTransform="matrix(-10.716 6.4103 7.735 12.9303 -3998.833 -6186.457)" gradientUnits="userSpaceOnUse">
	<stop  offset="0" style="stop-color:#CC5212"/>
	<stop  offset="1" style="stop-color:#CD5513;stop-opacity:0"/>
</radialGradient>
<path fill="url(#SVGID_00000044147333538962302320000002727300709032017563_)" d="M34.9,52.1c-0.8,2-1,3.1-2,5.1
	c-8.6-2.5-9.5-8.7-9.8-9.3l-2-5.7c1.6-5.1,2.4-8.5,4.3-12.7c4.6,5.1,3.7,5.4,4.6,7.6C30.5,38.1,32.1,44.1,34.9,52.1z"/>
<radialGradient id="SVGID_00000052821319049987699820000016193799195655806851_" cx="-54.1519" cy="447.1604" r="1" gradientTransform="matrix(8.4237 -9.3728 -8.9643 -8.0565 4486.2222 3143.75)" gradientUnits="userSpaceOnUse">
	<stop  offset="0" style="stop-color:#F1912D"/>
	<stop  offset="1" style="stop-color:#CD5513;stop-opacity:0"/>
</radialGradient>
<path fill="url(#SVGID_00000052821319049987699820000016193799195655806851_)" d="M34.9,52.1c-0.8,2-1,3.1-2,5.1
	c-8.6-2.5-9.5-8.7-9.8-9.3l-2-5.7c1.6-5.1,2.4-8.5,4.3-12.7c4.6,5.1,3.7,5.4,4.6,7.6C30.5,38.1,32.1,44.1,34.9,52.1z"/>
<radialGradient id="SVGID_00000062177508698917410540000004294397624861175170_" cx="-17.8869" cy="495.3672" r="1" gradientTransform="matrix(-10.1748 14.4163 7.7696 5.4837 -3995.3474 -2421.0879)" gradientUnits="userSpaceOnUse">
	<stop  offset="0" style="stop-color:#A83F0B"/>
	<stop  offset="1" style="stop-color:#CD5513;stop-opacity:0"/>
</radialGradient>
<path fill="url(#SVGID_00000062177508698917410540000004294397624861175170_)" d="M34.9,52.1c-0.8,2-1,3.1-2,5.1
	c-8.6-2.5-9.5-8.7-9.8-9.3l-2-5.7c1.6-5.1,2.4-8.5,4.3-12.7c4.6,5.1,3.7,5.4,4.6,7.6C30.5,38.1,32.1,44.1,34.9,52.1z"/>
<radialGradient id="SVGID_00000046312422257297956950000014030984229495621029_" cx="-16.5493" cy="506.7793" r="1" gradientTransform="matrix(-6.4084 2.9093 3.9532 8.7079 -2023.9562 -4311.0068)" gradientUnits="userSpaceOnUse">
	<stop  offset="0" style="stop-color:#FC8A21"/>
	<stop  offset="1" style="stop-color:#CA5014;stop-opacity:0"/>
</radialGradient>
<path fill="url(#SVGID_00000046312422257297956950000014030984229495621029_)" d="M83.2,58.4c0,4.5-3,8.1-8,8.1
	c-6.9,0-10.1-9.6-12.2-15.7c-5.4-16.7-3.8-15.7-9.1-22.5C54,28.2,56.6,23,64,23c2.5,0,5.4,1.9,7,3.5c3.6,3.6,5.1,10.1,8.3,20.1
	C81.7,55.1,83.2,53.6,83.2,58.4z"/>
<linearGradient id="SVGID_00000179624014850276635700000002636296098015702670_" gradientUnits="userSpaceOnUse" x1="62.7143" y1="43.3194" x2="58.1432" y2="45.8813" gradientTransform="matrix(1 0 0 -1 0 97.8898)">
	<stop  offset="0" style="stop-color:#CC5418"/>
	<stop  offset="1" style="stop-color:#CD5D1D;stop-opacity:0"/>
</linearGradient>
<path fill="url(#SVGID_00000179624014850276635700000002636296098015702670_)" d="M53.9,28.3c-1.2,1.9-3.1,5.4-5.1,11.3
	C47.3,34.8,44,23,36,23c-5,0-8.6,2.2-10.6,6.5c4.6,5.1,3.7,5.4,4.6,7.6c0.5,1.1,2.1,7.1,4.9,15c2.2,5.5,5,14.5,14.4,14.5
	c5.8,0,8.7-5.1,11-9.7c1.2-2.4,2.2-4.6,2.7-5.9C57.6,34.2,59.2,35.2,53.9,28.3z"/>
<linearGradient id="SVGID_00000141434412181556379870000009117235457682635909_" gradientUnits="userSpaceOnUse" x1="9.3625" y1="94.8014" x2="6.612" y2="82.1804" gradientTransform="matrix(1 0 0 -1 0 97.8898)">
	<stop  offset="0" style="stop-color:#FFCB55"/>
	<stop  offset="0.5017" style="stop-color:#E7A440"/>
	<stop  offset="1" style="stop-color:#CC8B36"/>
</linearGradient>
<path fill="url(#SVGID_00000141434412181556379870000009117235457682635909_)" d="M8.3,16.3c4.5,0,8.1-3.6,8.1-8.1
	c0-4.5-3.6-8.1-8.1-8.1C3.8,0,0.1,3.6,0.1,8.1C0.1,12.6,3.8,16.3,8.3,16.3z"/>
<linearGradient id="SVGID_00000005952130576179737700000006275921693417526661_" gradientUnits="userSpaceOnUse" x1="9.3625" y1="94.8015" x2="6.612" y2="82.1805" gradientTransform="matrix(1 0 0 -1 0 97.8898)">
	<stop  offset="0" style="stop-color:#FFCB55"/>
	<stop  offset="0.5017" style="stop-color:#E7A440"/>
	<stop  offset="1" style="stop-color:#CC8B36"/>
</linearGradient>
<path fill="url(#SVGID_00000005952130576179737700000006275921693417526661_)" d="M8.3,16.3c4.5,0,8.1-3.6,8.1-8.1
	c0-4.5-3.6-8.1-8.1-8.1C3.8,0,0.1,3.6,0.1,8.1C0.1,12.6,3.8,16.3,8.3,16.3z"/>
<linearGradient id="SVGID_00000166650966644805858360000002038584384810971530_" gradientUnits="userSpaceOnUse" x1="38.1595" y1="97.3542" x2="34.1652" y2="82.2963" gradientTransform="matrix(1 0 0 -1 0 97.8898)">
	<stop  offset="0" style="stop-color:#FEC847"/>
	<stop  offset="0.5017" style="stop-color:#F8912D"/>
	<stop  offset="1" style="stop-color:#DE6C1C"/>
</linearGradient>
<path fill="url(#SVGID_00000166650966644805858360000002038584384810971530_)" d="M36.1,16.3c4.5,0,8.1-3.6,8.1-8.1
	c0-4.5-3.6-8.1-8.1-8.1S28,3.6,28,8.1C28,12.6,31.6,16.3,36.1,16.3z"/>
<linearGradient id="SVGID_00000176729941258148721860000007347316924958911414_" gradientUnits="userSpaceOnUse" x1="65.9949" y1="97.3542" x2="62.0006" y2="82.2963" gradientTransform="matrix(1 0 0 -1 0 97.8898)">
	<stop  offset="0" style="stop-color:#FE9A2D"/>
	<stop  offset="0.5017" style="stop-color:#F26213"/>
	<stop  offset="1" style="stop-color:#D64708"/>
</linearGradient>
<path fill="url(#SVGID_00000176729941258148721860000007347316924958911414_)" d="M64,16.3c4.5,0,8.1-3.6,8.1-8.1
	C72.1,3.6,68.5,0,64,0s-8.1,3.6-8.1,8.1C55.8,12.6,59.5,16.3,64,16.3z"/>
<radialGradient id="SVGID_00000075845605617158444510000015856247129383986078_" cx="-19.0925" cy="482.8972" r="1" gradientTransform="matrix(-8.6038 4.6014 12.4746 23.3256 -6160.5698 -11121.1045)" gradientUnits="userSpaceOnUse">
	<stop  offset="0" style="stop-color:#BE5516"/>
	<stop  offset="1" style="stop-color:#B76A26;stop-opacity:0"/>
</radialGradient>
<path fill="url(#SVGID_00000075845605617158444510000015856247129383986078_)" d="M30,37.1c-0.9-2.2-0.1-2.6-4.6-7.6
	c-1.9,4.2-2.7,7.6-4.3,12.7c-2.6-8.1-3.7-13.4-7.2-16.8c-1.5-1.5-3.4-2.4-5.8-2.4c-4.5,0-8.1,3.6-8.1,8.1c0,1.5,0.4,2.8,1,4
	c1.1,2.3,1,1.8,4.1,11.5c3.1,9.7,6.1,20,15.4,20c6.3,0,9.8-4.4,12.3-9.4c1-2,1.2-3.1,2-5.1C32.1,44.1,30.5,38.1,30,37.1z"/>
<radialGradient id="SVGID_00000047024699473463746400000018048661161609496973_" cx="-61.0885" cy="510.6378" r="1" gradientTransform="matrix(-6.6986 -10.1343 -3.6187 2.3919 1464.5118 -1788.454)" gradientUnits="userSpaceOnUse">
	<stop  offset="0" style="stop-color:#E67F26"/>
	<stop  offset="1" style="stop-color:#B76A26;stop-opacity:0"/>
</radialGradient>
<path fill="url(#SVGID_00000047024699473463746400000018048661161609496973_)" d="M30,37.1c-0.9-2.2-0.1-2.6-4.6-7.6
	c-1.9,4.2-2.7,7.6-4.3,12.7c-2.6-8.1-3.7-13.4-7.2-16.8c-1.5-1.5-3.4-2.4-5.8-2.4c-4.5,0-8.1,3.6-8.1,8.1c0,1.5,0.4,2.8,1,4
	c1.1,2.3,1,1.8,4.1,11.5c3.1,9.7,6.1,20,15.4,20c6.3,0,9.8-4.4,12.3-9.4c1-2,1.2-3.1,2-5.1C32.1,44.1,30.5,38.1,30,37.1z"/>
<radialGradient id="SVGID_00000075866833960002064610000007576343068517224892_" cx="-48.4819" cy="484.493" r="1" gradientTransform="matrix(-10.122 -3.5558 -7.7097 21.9467 3274.3477 -10750.623)" gradientUnits="userSpaceOnUse">
	<stop  offset="0" style="stop-color:#C75313"/>
	<stop  offset="1" style="stop-color:#B76A26;stop-opacity:0"/>
</radialGradient>
<path fill="url(#SVGID_00000075866833960002064610000007576343068517224892_)" d="M30,37.1c-0.9-2.2-0.1-2.6-4.6-7.6
	c-1.9,4.2-2.7,7.6-4.3,12.7c-2.6-8.1-3.7-13.4-7.2-16.8c-1.5-1.5-3.4-2.4-5.8-2.4c-4.5,0-8.1,3.6-8.1,8.1c0,1.5,0.4,2.8,1,4
	c1.1,2.3,1,1.8,4.1,11.5c3.1,9.7,6.1,20,15.4,20c6.3,0,9.8-4.4,12.3-9.4c1-2,1.2-3.1,2-5.1C32.1,44.1,30.5,38.1,30,37.1z"/>
<radialGradient id="SVGID_00000139975413291147014080000014673926978156217743_" cx="-22.4805" cy="474.7345" r="1" gradientTransform="matrix(-6.7211 30.1354 22.9916 5.1279 -11052.6973 -1730.7875)" gradientUnits="userSpaceOnUse">
	<stop  offset="0" style="stop-color:#FBBF49"/>
	<stop  offset="1" style="stop-color:#BC792F;stop-opacity:0"/>
	<stop  offset="1" style="stop-color:#FDC44C;stop-opacity:0"/>
</radialGradient>
<path fill="url(#SVGID_00000139975413291147014080000014673926978156217743_)" d="M32.9,57.1c-2.5,5-6,9.4-12.3,9.4
	c-9.3,0-12.3-10.3-15.4-20c-3-9.7-3-9.1-4.1-11.5c-0.7-1.2-1-2.5-1-4c0-4.5,3.6-8.1,8.1-8.1c2.4,0,4.3,0.8,5.8,2.4
	c3.5,3.5,4.6,8.8,7.2,16.8l2,5.7C23.4,48.5,24.3,54.7,32.9,57.1z"/>
<radialGradient id="SVGID_00000011719592839375880170000010040119041179404432_" cx="-48.2957" cy="461.0013" r="1" gradientTransform="matrix(9.994 -6.2559 -19.8988 -31.7886 9659.0654 14399.9375)" gradientUnits="userSpaceOnUse">
	<stop  offset="0" style="stop-color:#CF8B34"/>
	<stop  offset="1" style="stop-color:#BC792F;stop-opacity:0"/>
	<stop  offset="1" style="stop-color:#FDC44C;stop-opacity:0"/>
</radialGradient>
<path fill="url(#SVGID_00000011719592839375880170000010040119041179404432_)" d="M32.9,57.1c-2.5,5-6,9.4-12.3,9.4
	c-9.3,0-12.3-10.3-15.4-20c-3-9.7-3-9.1-4.1-11.5c-0.7-1.2-1-2.5-1-4c0-4.5,3.6-8.1,8.1-8.1c2.4,0,4.3,0.8,5.8,2.4
	c3.5,3.5,4.6,8.8,7.2,16.8l2,5.7C23.4,48.5,24.3,54.7,32.9,57.1z"/>
<radialGradient id="SVGID_00000028305643762156917770000016532365813018394027_" cx="-22.8438" cy="487.4051" r="1" gradientTransform="matrix(-7.6786 2.6866 6.832 19.5266 -3485.52 -9416.8457)" gradientUnits="userSpaceOnUse">
	<stop  offset="0" style="stop-color:#ECAE44"/>
	<stop  offset="1" style="stop-color:#BC792F;stop-opacity:0"/>
	<stop  offset="1" style="stop-color:#FDC44C;stop-opacity:0"/>
</radialGradient>
<path fill="url(#SVGID_00000028305643762156917770000016532365813018394027_)" d="M32.9,57.1c-2.5,5-6,9.4-12.3,9.4
	c-9.3,0-12.3-10.3-15.4-20c-3-9.7-3-9.1-4.1-11.5c-0.7-1.2-1-2.5-1-4c0-4.5,3.6-8.1,8.1-8.1c2.4,0,4.3,0.8,5.8,2.4
	c3.5,3.5,4.6,8.8,7.2,16.8l2,5.7C23.4,48.5,24.3,54.7,32.9,57.1z"/>
<path fill="#FFFFFF" d="M152,51.1l-10.3-31.5h-10.2l-10.1,31.4l-9.6-31.4h-9.6l13.6,41.3h10.6l10.2-31.1l10.2,31.1h10.7l13.6-41.3
	h-9.4L152,51.1z"/>
<path fill="#FFFFFF" d="M202,21.2c-2.9-1.8-6.3-2.7-10.1-2.7c-4,0-7.6,0.9-10.6,2.7c-3.1,1.8-5.5,4.4-7.2,7.7
	c-1.7,3.3-2.6,7.1-2.6,11.3c0,4.3,0.9,8.1,2.7,11.4c1.8,3.3,4.3,5.8,7.4,7.6c3.2,1.8,6.8,2.7,10.9,2.7c3.3,0,6.3-0.5,9.1-1.4
	c2.8-0.9,5.4-2.4,7.8-4.5l-4.5-6.4c-1.7,1.4-3.6,2.5-5.7,3.2c-2.1,0.8-4.1,1.1-6.2,1.1c-2,0-3.9-0.4-5.6-1.1
	c-1.7-0.7-3.1-1.9-4.3-3.5c-1.2-1.6-1.9-3.5-2.3-5.9h30.3c0.1-1.4,0.2-2.5,0.2-3.4c0-4.2-0.8-8-2.5-11.3C207.2,25.6,205,23,202,21.2
	z M180.9,36.7c0.5-3.1,1.7-5.6,3.5-7.4c1.8-1.8,4.3-2.7,7.4-2.7c2.8,0,5.2,0.9,7,2.7c1.8,1.8,3,4.3,3.5,7.5H180.9z"/>
<path fill="#FFFFFF" d="M249.6,21.3c-3.1-1.9-6.6-2.8-10.4-2.8c-2.8,0-5.3,0.5-7.4,1.6c-2.1,1.1-4,2.5-5.4,4.4V2h-9v58.8h9v-4.9
	c1.5,1.9,3.3,3.4,5.4,4.4c2.1,1,4.6,1.6,7.4,1.6c3.8,0,7.3-0.9,10.4-2.8c3.1-1.9,5.6-4.4,7.4-7.8c1.8-3.3,2.7-7,2.7-11.2
	s-0.9-7.9-2.7-11.2C255.2,25.7,252.7,23.2,249.6,21.3z M249,46.9c-1,2-2.4,3.6-4.3,4.8c-1.9,1.2-4.1,1.8-6.6,1.8
	c-2.4,0-4.6-0.6-6.5-1.7c-1.9-1.1-3.3-2.7-4.4-4.7c-1-2-1.6-4.3-1.6-6.8c0-2.5,0.5-4.8,1.6-6.8c1-2,2.5-3.6,4.4-4.7
	c1.9-1.1,4-1.7,6.5-1.7c2.5,0,4.7,0.6,6.6,1.8c1.9,1.2,3.3,2.8,4.3,4.8c1,2,1.5,4.2,1.5,6.7C250.5,42.6,250,44.9,249,46.9z"/>
<path fill="#FFFFFF" d="M295,21.2c-2.9-1.8-6.3-2.7-10.1-2.7c-4,0-7.6,0.9-10.6,2.7c-3.1,1.8-5.5,4.4-7.2,7.7
	c-1.7,3.3-2.6,7.1-2.6,11.3c0,4.3,0.9,8.1,2.7,11.4c1.8,3.3,4.3,5.8,7.4,7.6c3.2,1.8,6.8,2.7,10.9,2.7c3.3,0,6.3-0.5,9.1-1.4
	c2.8-0.9,5.4-2.4,7.8-4.5l-4.5-6.4c-1.7,1.4-3.6,2.5-5.7,3.2c-2.1,0.8-4.1,1.1-6.2,1.1c-2,0-3.9-0.4-5.6-1.1
	c-1.7-0.7-3.1-1.9-4.3-3.5c-1.2-1.6-1.9-3.5-2.3-5.9h30.3c0.1-1.4,0.2-2.5,0.2-3.4c0-4.2-0.8-8-2.5-11.3
	C300.2,25.6,297.9,23,295,21.2z M273.8,36.7c0.5-3.1,1.7-5.6,3.5-7.4c1.8-1.8,4.3-2.7,7.4-2.7c2.8,0,5.2,0.9,7,2.7
	c1.8,1.8,3,4.3,3.5,7.5H273.8z"/>
<path fill="#FFFFFF" d="M331.4,39.7l15.2-20.1H336l-10,13.8l-10-13.8h-11l15.2,20.2l-15.5,21.1h10.5l10.3-14.3l10.4,14.3h11
	L331.4,39.7z"/>
<path fill="#FFFFFF" d="M387.7,37.6v4.8h-18.2v13.6h19.9V61h-25.7V19.8h25.7v4.9h-19.9v12.9H387.7z"/>
<path fill="#FFFFFF" d="M414.2,31.2h5.7L409.5,61H402l-10.4-29.8h6l8.2,25.3L414.2,31.2z"/>
<path fill="#FFFFFF" d="M442.5,52.4h6c-0.8,3-2.5,5.4-5,7.1c-2.3,1.6-5.1,2.3-8.4,2.3c-4.7,0-8.4-1.5-11-4.5
	c-2.4-2.8-3.6-6.6-3.6-11.3c0-5.4,1.5-9.5,4.6-12.3c2.5-2.3,5.8-3.5,9.7-3.5c4.7,0,8.2,1.5,10.5,4.5c2.3,2.9,3.4,7,3.4,12.4h-22.7
	c0.2,3.5,1.3,6.1,3.2,7.8c1.6,1.4,3.6,2.1,6,2.1c1.9,0,3.5-0.5,4.9-1.5C441.3,54.8,442.1,53.7,442.5,52.4z M435,34.8
	c-2.4,0-4.4,0.8-5.9,2.3c-1.4,1.4-2.3,3.4-2.7,5.9h16.8c-0.2-2.9-1.1-5-2.9-6.4C439,35.4,437.2,34.8,435,34.8z"/>
<path fill="#FFFFFF" d="M459.8,61h-5.5V31.2h4.5l0.6,3.8c2.2-3.1,5.2-4.6,9.1-4.6c3.5,0,6.2,1.1,8.1,3.3c1.6,1.9,2.5,4.6,2.5,8V61
	h-5.5V41.7c0-4.4-2.1-6.6-6.4-6.6c-2.2,0-4,0.8-5.4,2.3c-1.3,1.4-1.9,3.1-1.9,5.3V61z"/>
<path fill="#FFFFFF" d="M499,56.6v4.7c-1.4,0.4-2.8,0.6-4.1,0.6c-2.8,0-4.8-0.9-6.2-2.6c-1.2-1.4-1.8-3.3-1.8-5.7V35.9h-4.4v-4.7
	h4.4l0.3-7.2h5.2v7.2h6.4v4.7h-6.4v17.8c0,2.2,1.1,3.3,3.2,3.3C496.6,57.1,497.7,56.9,499,56.6z"/>
<path fill="#FFFFFF" d="M520.4,52.9c0-1.7-0.9-2.9-2.6-3.8c-1-0.5-3-1-6-1.7c-3.7-0.8-6.3-2-7.8-3.5c-1.3-1.3-1.9-3-1.9-5.1
	c0-2.8,1.1-4.9,3.4-6.4c2-1.4,4.8-2.1,8.2-2.1c3.6,0,6.4,0.9,8.7,2.6c1.9,1.5,3.1,3.6,3.6,6.1h-5.6c-0.6-2.9-2.9-4.4-6.6-4.4
	c-2.1,0-3.7,0.4-4.7,1.1c-0.8,0.6-1.3,1.5-1.3,2.5c0,1.2,0.5,2.1,1.4,2.8c1,0.6,2.8,1.2,5.6,1.8c4.2,0.9,7.1,2,8.8,3.4
	c1.8,1.5,2.8,3.6,2.8,6.2c0,3-1.2,5.3-3.7,7c-2.2,1.5-5.1,2.3-8.8,2.3c-4,0-7.1-1-9.5-2.9c-2-1.7-3.2-3.9-3.4-6.5h5.6
	c0.6,3.4,3,5,7.3,5c2.3,0,4.1-0.5,5.3-1.5C519.9,55.2,520.4,54.2,520.4,52.9z"/>
<path fill="#FFFFFF" d="M365.4,88.2c0,3.3,1,6.4,2.9,9.4h-1.2c-0.9-1.2-1.7-2.6-2.2-4.2c-0.6-1.7-0.9-3.4-0.9-5.2
	c0-2,0.4-3.9,1.1-5.8c0.5-1.3,1.2-2.5,2-3.6h1.2C366.4,81.8,365.4,84.9,365.4,88.2z"/>
<path fill="#FFFFFF" d="M375.9,80.5v1.2c-0.5-0.2-1-0.2-1.5-0.2c-0.4,0-0.7,0.1-0.9,0.3c-0.2,0.2-0.3,0.5-0.3,0.9v1.6h2.2v1.2h-2.2
	v8.7h-1.4v-8.7h-1.5v-1.2h1.5v-1.5c0-0.8,0.3-1.5,0.8-2c0.4-0.4,1-0.6,1.7-0.6C374.8,80.2,375.3,80.3,375.9,80.5z"/>
<path fill="#FFFFFF" d="M378.9,89.3c0,1.4,0.4,2.5,1.1,3.2c0.6,0.6,1.3,0.9,2.2,0.9c1,0,1.9-0.4,2.4-1.2c0.5-0.7,0.8-1.7,0.8-2.9
	c0-1.4-0.3-2.5-1-3.2c-0.6-0.6-1.3-0.9-2.2-0.9c-1,0-1.9,0.4-2.4,1.2C379.2,87.1,378.9,88.1,378.9,89.3z M377.4,89.3
	c0-1.8,0.5-3.2,1.5-4.1c0.8-0.8,1.9-1.1,3.2-1.1c1.5,0,2.7,0.5,3.5,1.5c0.8,0.9,1.2,2.2,1.2,3.8c0,1.8-0.5,3.2-1.5,4.1
	c-0.8,0.8-1.9,1.1-3.2,1.1c-1.5,0-2.7-0.5-3.6-1.5C377.8,92.1,377.4,90.9,377.4,89.3z"/>
<path fill="#FFFFFF" d="M391.3,94.3h-1.4v-9.9h1.2l0.2,1.7c0.5-1.3,1.4-2,2.7-2c0.3,0,0.7,0,1.1,0.1v1.4c-0.4-0.1-0.8-0.2-1.1-0.2
	c-0.8,0-1.4,0.3-1.9,1c-0.4,0.6-0.7,1.5-0.7,2.6V94.3z"/>
<path fill="#FFFFFF" d="M398.8,94.3h-1.4v-9.9h1.2l0.2,1.4c0.3-0.5,0.7-0.9,1.2-1.2c0.5-0.3,1.1-0.4,1.8-0.4c1.5,0,2.4,0.6,2.9,1.8
	c0.6-1.2,1.7-1.8,3.2-1.8c1.1,0,1.9,0.3,2.5,1c0.5,0.6,0.8,1.4,0.8,2.5v6.7h-1.4v-6.6c0-1.6-0.7-2.4-2.1-2.4c-0.8,0-1.5,0.3-2,1
	c-0.4,0.5-0.6,1.2-0.6,1.9v6.1h-1.4v-6.6c0-1.6-0.7-2.4-2.1-2.4c-0.8,0-1.5,0.3-2,0.9c-0.4,0.5-0.7,1.2-0.7,1.9V94.3z"/>
<path fill="#FFFFFF" d="M421.6,91.5h1.5c-0.3,1-0.8,1.8-1.6,2.3c-0.7,0.5-1.6,0.7-2.7,0.7c-1.5,0-2.7-0.5-3.6-1.5
	c-0.8-0.9-1.2-2.2-1.2-3.7c0-1.8,0.5-3.1,1.5-4.1c0.8-0.8,1.9-1.2,3.2-1.2c1.5,0,2.6,0.5,3.4,1.5c0.8,1,1.1,2.3,1.1,4.1h-7.8
	c0.1,1.3,0.5,2.3,1.2,2.9c0.6,0.5,1.3,0.8,2.2,0.8c0.7,0,1.3-0.2,1.8-0.6C421.2,92.4,421.5,92,421.6,91.5z M418.8,85.2
	c-0.9,0-1.7,0.3-2.2,0.9c-0.5,0.6-0.9,1.4-1,2.3h6.3c-0.1-1.1-0.4-2-1.1-2.6C420.2,85.4,419.6,85.2,418.8,85.2z"/>
<path fill="#FFFFFF" d="M427.9,94.3h-1.4v-9.9h1.2l0.2,1.7c0.5-1.3,1.4-2,2.7-2c0.3,0,0.7,0,1.1,0.1v1.4c-0.4-0.1-0.8-0.2-1.1-0.2
	c-0.8,0-1.4,0.3-1.9,1c-0.4,0.6-0.7,1.5-0.7,2.6V94.3z"/>
<path fill="#FFFFFF" d="M435.3,80.5v13.8h-1.4V80.5H435.3z"/>
<path fill="#FFFFFF" d="M446.9,84.3l-3.5,10c-0.5,1.5-0.9,2.4-1.3,2.8c-0.4,0.5-1,0.8-1.7,0.8c-0.3,0-0.7-0.1-1.1-0.2v-1.2
	c0.4,0.1,0.7,0.2,1,0.2c0.4,0,0.7-0.2,0.9-0.5c0.2-0.3,0.5-1,0.9-2.1h-0.5l-3.8-9.9h1.5l3.2,8.8l3-8.8H446.9z"/>
<path fill="#FFFFFF" d="M461.1,94.6c-1.8,0-3.3-0.4-4.4-1.3c-0.9-0.8-1.4-1.8-1.6-3h3c0.1,0.7,0.4,1.2,1,1.6c0.5,0.4,1.2,0.5,2,0.5
	c1.7,0,2.6-0.5,2.6-1.6c0-0.7-0.4-1.2-1.1-1.5c-0.4-0.2-1.2-0.4-2.3-0.7c-1.6-0.4-2.7-0.8-3.4-1.4c-0.9-0.7-1.3-1.7-1.3-2.9
	c0-1.3,0.5-2.3,1.6-3c1-0.6,2.3-0.9,3.9-0.9c1.7,0,3,0.4,4,1.1c0.8,0.7,1.3,1.6,1.5,2.7h-3c-0.1-0.5-0.4-1-0.9-1.3
	c-0.4-0.2-1-0.4-1.6-0.4c-1.5,0-2.2,0.5-2.2,1.4c0,0.5,0.2,0.9,0.6,1.1c0.4,0.3,1.1,0.5,2.2,0.7c1.7,0.4,3,0.9,3.8,1.6
	c1,0.8,1.5,1.8,1.5,3.1c0,1.3-0.5,2.3-1.6,3.1C464.3,94.2,462.9,94.6,461.1,94.6z"/>
<path fill="#FFFFFF" d="M475.6,92.3c1.1,0,1.9-0.4,2.5-1.2c0.6-0.8,1-2.1,1-3.7c0-1.8-0.4-3.2-1.2-4c-0.6-0.6-1.4-0.9-2.3-0.9
	c-1.1,0-1.9,0.4-2.5,1.2c-0.6,0.9-1,2.1-1,3.7c0,1.8,0.4,3.1,1.2,4C473.9,92,474.7,92.3,475.6,92.3z M475.6,94.6
	c-2.1,0-3.7-0.6-4.9-1.8c-1.2-1.2-1.9-3-1.9-5.3c0-2.6,0.8-4.5,2.4-5.8c1.2-0.9,2.6-1.4,4.4-1.4c2,0,3.7,0.6,4.9,1.8
	c1.2,1.2,1.9,3,1.9,5.3c0,2.6-0.8,4.5-2.3,5.8C478.8,94.1,477.3,94.6,475.6,94.6z"/>
<path fill="#FFFFFF" d="M491.1,92.3c1.9,0,2.9-1,3-3.1h3.3c-0.2,1.9-0.9,3.3-2.1,4.2c-1.1,0.8-2.5,1.2-4.2,1.2c-2.1,0-3.6-0.7-4.8-2
	c-1.1-1.3-1.6-3-1.6-5.2c0-2.4,0.7-4.3,2-5.5c1.1-1.1,2.6-1.6,4.5-1.6c1.7,0,3.2,0.5,4.3,1.4c1,0.8,1.6,2,1.8,3.4H494
	c-0.4-1.7-1.3-2.5-2.9-2.5c-1.1,0-1.9,0.4-2.4,1.3c-0.5,0.8-0.8,2-0.8,3.6c0,1.8,0.3,3.2,1,4C489.5,92,490.2,92.3,491.1,92.3z"/>
<path fill="#FFFFFF" d="M500,80.5h3.2v13.8H500V80.5z"/>
<path fill="#FFFFFF" d="M512.6,92.3c1.1,0,1.9-0.4,2.5-1.2c0.6-0.8,1-2.1,1-3.7c0-1.8-0.4-3.2-1.2-4c-0.6-0.6-1.3-0.9-2.3-0.9
	c-1.1,0-1.9,0.4-2.5,1.2c-0.6,0.9-1,2.1-1,3.7c0,1.8,0.4,3.1,1.2,4C511,92,511.7,92.3,512.6,92.3z M512.6,94.6
	c-2.1,0-3.7-0.6-4.9-1.8c-1.2-1.2-1.9-3-1.9-5.3c0-2.6,0.8-4.5,2.3-5.8c1.2-0.9,2.6-1.4,4.4-1.4c2,0,3.7,0.6,4.9,1.8
	c1.2,1.2,1.9,3,1.9,5.3c0,2.6-0.8,4.5-2.4,5.8C515.8,94.1,514.4,94.6,512.6,94.6z"/>
<path fill="#FFFFFF" d="M524.6,88.2c0-3.3-1-6.4-2.9-9.4h1.2c0.9,1.2,1.7,2.6,2.2,4.2c0.6,1.7,0.9,3.4,0.9,5.2c0,2-0.4,3.9-1.1,5.8
	c-0.5,1.3-1.2,2.5-2,3.6h-1.2C523.6,94.6,524.6,91.4,524.6,88.2z"/>
</svg>
